<svg width="191" height="191" viewBox="0 0 191 191" fill="none" xmlns="http://www.w3.org/2000/svg">
<path d="M173.038 98.1344L101.413 18.551C98.3968 15.1926 92.6032 15.1926 89.587 18.551L17.962 98.1344C16.931 99.2772 16.2543 100.695 16.0141 102.215C15.7739 103.735 15.9806 105.293 16.609 106.698C17.8824 109.57 20.7315 111.417 23.875 111.417H39.7917V167.125C39.7917 169.236 40.6301 171.26 42.1226 172.753C43.6151 174.245 45.6393 175.083 47.75 175.083H71.625C73.7357 175.083 75.7599 174.245 77.2524 172.753C78.7449 171.26 79.5833 169.236 79.5833 167.125V135.292H111.417V167.125C111.417 169.236 112.255 171.26 113.748 172.753C115.24 174.245 117.264 175.083 119.375 175.083H143.25C145.361 175.083 147.385 174.245 148.877 172.753C150.37 171.26 151.208 169.236 151.208 167.125V111.417H167.125C168.666 111.423 170.176 110.981 171.471 110.145C172.765 109.308 173.788 108.113 174.415 106.705C175.042 105.297 175.245 103.737 175.001 102.215C174.756 100.693 174.074 99.2753 173.038 98.1344Z" fill="#F0F3BD"/>
</svg>
