<svg width="178" height="142" viewBox="0 0 178 142" fill="none" xmlns="http://www.w3.org/2000/svg">
<g clip-path="url(#clip0)">
<path d="M173.55 97.625H170.179C162.25 97.625 158.278 88.065 163.885 82.4737L166.271 80.0969C166.685 79.6848 167.013 79.1955 167.236 78.6571C167.46 78.1186 167.575 77.5415 167.575 76.9587C167.575 76.3759 167.46 75.7988 167.236 75.2604C167.013 74.7219 166.685 74.2327 166.271 73.8206C165.858 73.4085 165.368 73.0816 164.828 72.8585C164.288 72.6355 163.709 72.5207 163.124 72.5207C162.54 72.5207 161.961 72.6355 161.421 72.8585C160.881 73.0816 160.391 73.4085 159.977 73.8206L157.594 76.2002C151.987 81.7914 142.4 77.831 142.4 69.9239V66.5625C142.4 65.3856 141.931 64.2569 141.097 63.4247C140.262 62.5925 139.13 62.125 137.95 62.125C136.77 62.125 135.638 62.5925 134.803 63.4247C133.969 64.2569 133.5 65.3856 133.5 66.5625V69.9239C133.5 77.831 123.913 81.7914 118.306 76.2002L115.922 73.8206C115.088 72.9883 113.956 72.5207 112.776 72.5207C111.595 72.5207 110.463 72.9883 109.629 73.8206C108.794 74.6529 108.325 75.7817 108.325 76.9587C108.325 78.1358 108.794 79.2646 109.629 80.0969L112.015 82.4737C117.622 88.065 113.65 97.625 105.721 97.625H102.35C101.17 97.625 100.038 98.0925 99.2034 98.9247C98.3688 99.7569 97.9 100.886 97.9 102.062C97.9 103.239 98.3688 104.368 99.2034 105.2C100.038 106.032 101.17 106.5 102.35 106.5H105.721C113.65 106.5 117.622 116.06 112.015 121.651L109.629 124.028C109.215 124.44 108.887 124.929 108.664 125.468C108.44 126.006 108.325 126.583 108.325 127.166C108.325 127.749 108.44 128.326 108.664 128.865C108.887 129.403 109.215 129.892 109.629 130.304C110.042 130.717 110.532 131.043 111.072 131.266C111.612 131.489 112.191 131.604 112.776 131.604C113.36 131.604 113.939 131.489 114.479 131.266C115.019 131.043 115.509 130.717 115.922 130.304L118.306 127.925C123.913 122.334 133.5 126.294 133.5 134.201V137.562C133.5 138.739 133.969 139.868 134.803 140.7C135.638 141.532 136.77 142 137.95 142C139.13 142 140.262 141.532 141.097 140.7C141.931 139.868 142.4 138.739 142.4 137.562V134.201C142.4 126.294 151.987 122.334 157.594 127.925L159.977 130.304C160.391 130.717 160.881 131.043 161.421 131.266C161.961 131.489 162.54 131.604 163.124 131.604C163.709 131.604 164.288 131.489 164.828 131.266C165.368 131.043 165.858 130.717 166.271 130.304C166.685 129.892 167.013 129.403 167.236 128.865C167.46 128.326 167.575 127.749 167.575 127.166C167.575 126.583 167.46 126.006 167.236 125.468C167.013 124.929 166.685 124.44 166.271 124.028L163.885 121.651C158.278 116.06 162.25 106.5 170.179 106.5H173.55C174.73 106.5 175.862 106.032 176.697 105.2C177.531 104.368 178 103.239 178 102.062C178 100.886 177.531 99.7569 176.697 98.9247C175.862 98.0925 174.73 97.625 173.55 97.625ZM133.5 106.5C131.74 106.5 130.019 105.979 128.555 105.004C127.092 104.029 125.951 102.643 125.277 101.021C124.604 99.3996 124.428 97.6152 124.771 95.8936C125.114 94.172 125.962 92.5906 127.207 91.3494C128.451 90.1082 130.037 89.263 131.764 88.9205C133.49 88.5781 135.28 88.7538 136.906 89.4256C138.532 90.0973 139.922 91.2348 140.9 92.6943C141.878 94.1538 142.4 95.8697 142.4 97.625C142.4 99.9788 141.462 102.236 139.793 103.901C138.124 105.565 135.86 106.5 133.5 106.5ZM96.3731 59.1657H100.868C102.441 59.1657 103.95 58.5425 105.062 57.4331C106.175 56.3236 106.8 54.819 106.8 53.25C106.8 51.681 106.175 50.1764 105.062 49.0669C103.95 47.9575 102.441 47.3343 100.868 47.3343H96.3731C85.8043 47.3343 80.5061 34.5764 87.9821 27.1325L91.161 23.9597C92.2671 22.8488 92.8866 21.346 92.8836 19.7806C92.8807 18.2151 92.2556 16.7146 91.1454 15.6079C90.0351 14.5011 88.5302 13.8783 86.9604 13.8759C85.3905 13.8735 83.8837 14.4917 82.77 15.595L79.591 18.7651C72.115 26.2201 59.3324 20.9422 59.3324 10.3976V5.91574C59.3324 4.34679 58.7074 2.8421 57.5948 1.73268C56.4823 0.623264 54.9734 0 53.4 0C51.8266 0 50.3177 0.623264 49.2052 1.73268C48.0926 2.8421 47.4676 4.34679 47.4676 5.91574V10.3976C47.4676 20.9367 34.6738 26.2201 27.209 18.7651L24.03 15.595C22.9163 14.4917 21.4095 13.8735 19.8396 13.8759C18.2698 13.8783 16.7649 14.5011 15.6546 15.6079C14.5444 16.7146 13.9193 18.2151 13.9164 19.7806C13.9134 21.346 14.5329 22.8488 15.639 23.9597L18.8179 27.1325C26.2939 34.5875 21.0012 47.3343 10.4269 47.3343H5.93241C4.35903 47.3343 2.8501 47.9575 1.73756 49.0669C0.625019 50.1764 0 51.681 0 53.25C0 54.819 0.625019 56.3236 1.73756 57.4331C2.8501 58.5425 4.35903 59.1657 5.93241 59.1657H10.4269C20.9957 59.1657 26.2939 71.9236 18.8179 79.3675L15.639 82.5375C14.5262 83.6471 13.9011 85.152 13.9011 86.7212C13.9011 88.2904 14.5262 89.7954 15.639 90.905C16.7517 92.0145 18.2609 92.6379 19.8345 92.6379C21.4081 92.6379 22.9173 92.0145 24.03 90.905L27.209 87.7349C34.685 80.2799 47.4676 85.5578 47.4676 96.1024V100.584C47.4676 102.153 48.0926 103.658 49.2052 104.767C50.3177 105.877 51.8266 106.5 53.4 106.5C54.9734 106.5 56.4823 105.877 57.5948 104.767C58.7074 103.658 59.3324 102.153 59.3324 100.584V96.1024C59.3324 85.5633 72.1262 80.2799 79.591 87.7349L82.77 90.905C83.8827 92.0145 85.3919 92.6379 86.9655 92.6379C88.5391 92.6379 90.0483 92.0145 91.161 90.905C92.2737 89.7954 92.8989 88.2904 92.8989 86.7212C92.8989 85.152 92.2737 83.6471 91.161 82.5375L87.9821 79.3675C80.5061 71.9125 85.7988 59.1657 96.3731 59.1657ZM44.5 53.25C42.7397 53.25 41.019 52.7295 39.5554 51.7543C38.0918 50.7791 36.9511 49.393 36.2775 47.7713C35.6039 46.1496 35.4276 44.3652 35.771 42.6436C36.1144 40.922 36.9621 39.3406 38.2067 38.0994C39.4514 36.8582 41.0373 36.013 42.7637 35.6705C44.4901 35.3281 46.2796 35.5038 47.9059 36.1756C49.5321 36.8473 50.9221 37.9848 51.9001 39.4443C52.878 40.9038 53.4 42.6197 53.4 44.375C53.4 46.7288 52.4623 48.9862 50.7932 50.6506C49.1242 52.315 46.8604 53.25 44.5 53.25ZM66.75 62.125C65.8699 62.125 65.0095 61.8647 64.2777 61.3771C63.5459 60.8895 62.9755 60.1965 62.6387 59.3857C62.3019 58.5748 62.2138 57.6826 62.3855 56.8218C62.5572 55.961 62.981 55.1703 63.6034 54.5497C64.2257 53.9291 65.0186 53.5065 65.8818 53.3353C66.7451 53.164 67.6398 53.2519 68.4529 53.5878C69.2661 53.9236 69.9611 54.4924 70.45 55.2222C70.939 55.9519 71.2 56.8098 71.2 57.6875C71.2 58.8644 70.7312 59.9931 69.8966 60.8253C69.0621 61.6575 67.9302 62.125 66.75 62.125Z" fill="#F0F3BD"/>
</g>
<defs>
<clipPath id="clip0">
<rect width="178" height="142" fill="white"/>
</clipPath>
</defs>
</svg>
