<svg width="145" height="145" viewBox="0 0 145 145" fill="none" xmlns="http://www.w3.org/2000/svg">
<path d="M12.4202 76.9314H24.9876C25.9415 76.9314 26.8251 77.4072 27.3507 78.1911C27.3507 78.1911 29.7455 81.807 32.1357 85.3935C33.4611 73.644 38.0762 32.5727 38.0762 32.5727C38.2348 31.2179 39.3472 30.1485 40.7292 30.0692C41.3925 30.0289 42.0487 30.2241 42.5822 30.6204C43.1156 31.0166 43.492 31.5885 43.6451 32.2351C43.6451 32.2351 49.6626 57.4674 52.5105 69.3891L56.2782 58.7226C56.4713 58.1726 56.8297 57.6958 57.3042 57.3574C57.7788 57.0189 58.3463 56.8354 58.9291 56.832C59.512 56.8285 60.0817 57.0052 60.5602 57.338C61.0387 57.6707 61.4028 58.1432 61.6024 58.6908C61.6024 58.6908 67.1917 73.8728 68.3109 76.9314H79.2177C80.1715 76.9314 81.0551 77.4072 81.5784 78.1911C81.5784 78.1911 83.9755 81.807 86.3612 85.3958C87.6911 73.6462 92.3062 32.575 92.3062 32.575C92.3812 31.9129 92.6873 31.2984 93.1707 30.8397C93.654 30.381 94.2837 30.1074 94.9488 30.0671C95.614 30.0267 96.272 30.2223 96.8073 30.6192C97.3425 31.0162 97.7206 31.5892 97.8751 32.2374L106.736 69.3914L110.51 58.7248C110.703 58.1754 111.062 57.6991 111.536 57.361C112.01 57.0229 112.577 56.8396 113.159 56.8361C113.741 56.8326 114.311 57.0092 114.789 57.3416C115.267 57.674 115.631 58.146 115.83 58.6931C115.83 58.6931 121.426 73.8751 122.543 76.9337H133.69L134.284 75.8008C139.699 66.4846 143.652 49.2341 143.652 36.6712C143.652 20.6419 131.986 1.27991 109.253 1.27991C76.7685 1.27991 72.593 31.7095 72.593 31.7095C72.593 31.7095 68.5647 1.42717 36.1005 1.42717C14.1693 1.42717 2.4039 20.0869 2.4039 36.6712C2.4039 50.9945 8.67515 68.6755 11.8878 75.9368L12.4202 76.9314Z" fill="#F0F3BD"/>
<path d="M120.567 82.5953C119.376 82.5953 118.318 81.8499 117.912 80.742L113.227 68.016L108.888 80.3228C108.469 81.5078 107.325 82.2758 106.072 82.2011C105.461 82.1728 104.875 81.9454 104.405 81.5535C103.935 81.1616 103.606 80.6268 103.469 80.0306L96.1327 49.2928L91.1302 93.7512C91.0643 94.3285 90.8221 94.8714 90.4366 95.306C90.051 95.7406 89.5408 96.0458 88.9755 96.18C88.4115 96.3172 87.8189 96.2776 87.2782 96.0664C86.7375 95.8552 86.2749 95.4828 85.9532 94.9996C85.9532 94.9996 79.0884 84.6661 77.7018 82.593H66.3374C65.7588 82.5921 65.1944 82.414 64.7201 82.0826C64.2458 81.7513 63.8843 81.2827 63.6844 80.7397L58.9991 68.016C57.5467 72.1174 56.0967 76.2197 54.6491 80.3228C54.4476 80.8995 54.0638 81.3948 53.5556 81.7337C53.0474 82.0726 52.4427 82.2367 51.8329 82.2011C51.2211 82.171 50.6357 81.9431 50.1646 81.5517C49.6935 81.1603 49.3622 80.6265 49.2206 80.0306L41.8981 49.3132L36.8979 93.7512C36.8319 94.328 36.5899 94.8706 36.2048 95.3051C35.8198 95.7396 35.3103 96.0451 34.7455 96.18C34.1812 96.3171 33.5883 96.2774 33.0473 96.0662C32.5063 95.8551 32.0432 95.4827 31.7209 94.9996C31.7209 94.9996 24.8561 84.6661 23.4695 82.593H15.4968C35.8059 118.678 72.5928 142.444 72.5928 142.444C72.5928 142.444 110.046 118.673 130.679 82.593L120.567 82.5953Z" fill="#F0F3BD"/>
</svg>
